<?xml version="1.0" encoding="UTF-8" standalone="no"?>
<svg
   width="16"
   height="16"
   version="1.1"
   id="svg4"
   xmlns="http://www.w3.org/2000/svg"
   xmlns:svg="http://www.w3.org/2000/svg">
  <defs
     id="defs4" />
  <path
     fill="#a2d2ff"
     d="M 8,15.5 10.5,13 A 2.5,1 0 0 0 9,12.1 V 6.9 A 1,0.4 0 0 0 8,6.5 Z"
     id="path3-9"
     style="fill:#eeeeee;fill-opacity:1" />
  <path
     fill="#2998ff"
     d="M 8,15.5 5.5,13 A 2.5,1 0 0 1 7,12.1 V 6.9 A 1,0.4 0 0 1 8,6.5 v 4.75 a 2.5,1 0 0 1 1,0.1 V 12.1 A 2.5,1 0 0 0 8,12 Z"
     id="path4-4"
     style="fill:#949494;fill-opacity:1" />
  <path
     fill="#5fb2ff"
     fill-opacity="0.4"
     d="m 0,10 h 16 v 6 H 0 Z"
     id="path1"
     style="display:none" />
  <path
     fill="#5fb2ff"
     d="M 0,7.5 8,9.9999997 16,7.5 8,5 Z"
     id="path2"
     style="fill:#afafaf;fill-opacity:1" />
  <path
     fill="#a2d2ff"
     d="M 8,0.5 5.5,3 C 5.51623,3.3916134 6.1025191,3.7433869 7,3.9 v 3.4 c 0,0.2209139 0.4477153,0.4 1,0.4 z"
     id="path3"
     style="fill:#eeeeee;fill-opacity:1" />
  <path
     fill="#2998ff"
     d="M 8,0.5 10.5,3 C 10.48377,3.3916134 9.8974809,3.7433869 9,3.9 V 7.3 C 9,7.5209139 8.5522847,7.7 8,7.7 V 4.75 C 7.6529195,4.74481 7.3123482,4.710757 7,4.65 V 3.9 C 7.3123482,3.960757 7.6529195,3.994814 8,4 Z"
     id="path4"
     style="fill:#949494;fill-opacity:1" />
</svg>
