<?xml version="1.0" encoding="UTF-8" standalone="no"?>
<!-- Created with Inkscape (http://www.inkscape.org/) -->

<svg
   width="16"
   height="15.999999"
   viewBox="0 0 4.2333332 4.233333"
   version="1.1"
   id="svg1"
   xmlns="http://www.w3.org/2000/svg"
   xmlns:svg="http://www.w3.org/2000/svg">
  <defs
     id="defs1" />
  <g
     id="layer1">
    <path
       d="M 0,0 V 4.2333332 M 0.26458333,0 V 4.2333332 M 0.52916665,0 V 4.2333332 M 0.79374997,0 V 4.2333332 M 1.0583333,0 V 4.2333332 M 1.3229166,0 V 4.2333332 M 1.5874999,0 V 4.2333332 M 1.8520833,0 V 4.2333332 M 2.1166666,0 V 4.2333332 M 2.3812499,0 V 4.2333332 M 2.6458332,0 V 4.2333332 M 2.9104166,0 V 4.2333332 M 3.1749999,0 V 4.2333332 M 3.4395832,0 V 4.2333332 M 3.7041665,0 V 4.2333332 M 3.9687499,0 V 4.2333332 M 4.2333332,0 V 4.2333332 M 0,0 H 4.2333332 M 0,0.26458333 H 4.2333332 M 0,0.52916665 H 4.2333332 M 0,0.79374997 H 4.2333332 M 0,1.0583333 H 4.2333332 M 0,1.3229166 H 4.2333332 M 0,1.5874999 H 4.2333332 M 0,1.8520833 H 4.2333332 M 0,2.1166666 H 4.2333332 M 0,2.3812499 H 4.2333332 M 0,2.6458332 H 4.2333332 M 0,2.9104166 H 4.2333332 M 0,3.1749999 H 4.2333332 M 0,3.4395832 H 4.2333332 M 0,3.7041665 H 4.2333332 M 0,3.9687499 H 4.2333332 M 0,4.2333332 h 4.2333332"
       style="display:none;fill:#ffaaaa;stroke:#000000;stroke-width:0.0264583px"
       id="path1" />
    <rect
       style="fill:#ff8080;fill-opacity:1;stroke-width:0.264583"
       id="rect45"
       width="0.52916664"
       height="0.5208984"
       x="0.26458332"
       y="0.27285156" />
    <rect
       style="fill:#ff8080;fill-opacity:1;stroke-width:0.264583"
       id="rect45-1"
       width="0.52916664"
       height="0.5208984"
       x="0.26458332"
       y="0.26458332" />
    <rect
       style="fill:#ff8080;fill-opacity:1;stroke-width:0.266675"
       id="rect45-1-9"
       width="0.52916664"
       height="0.52916664"
       x="1.3229166"
       y="0.26458329" />
    <rect
       style="fill:#ff8080;fill-opacity:1;stroke-width:0.266675"
       id="rect45-1-9-2"
       width="0.52916664"
       height="0.52916664"
       x="2.3812501"
       y="0.26458329" />
    <rect
       style="fill:#ff8080;fill-opacity:1;stroke-width:0.266675"
       id="rect45-1-9-2-1"
       width="0.52916664"
       height="0.52916664"
       x="3.4395833"
       y="0.26458329" />
    <rect
       style="fill:#ff8080;fill-opacity:1;stroke-width:0.264583"
       id="rect45-1-4"
       width="0.52916664"
       height="0.5208984"
       x="0.26458332"
       y="1.3229166" />
    <rect
       style="fill:#ff8080;fill-opacity:1;stroke-width:0.266675"
       id="rect45-1-9-8"
       width="0.52916664"
       height="0.52916664"
       x="1.3229166"
       y="1.3229166" />
    <rect
       style="fill:#ff8080;fill-opacity:1;stroke-width:0.266675"
       id="rect45-1-9-2-6"
       width="0.52916664"
       height="0.52916664"
       x="2.3812501"
       y="1.3229166" />
    <rect
       style="fill:#ff8080;fill-opacity:1;stroke-width:0.266675"
       id="rect45-1-9-2-1-5"
       width="0.52916664"
       height="0.52916664"
       x="3.4395833"
       y="1.3229166" />
    <rect
       style="fill:#ff8080;fill-opacity:1;stroke-width:0.264583"
       id="rect45-1-6"
       width="0.52916664"
       height="0.5208984"
       x="0.26458332"
       y="2.3812501" />
    <rect
       style="fill:#ff8080;fill-opacity:1;stroke-width:0.266675"
       id="rect45-1-9-1"
       width="0.52916664"
       height="0.52916664"
       x="1.3229166"
       y="2.3812501" />
    <rect
       style="fill:#ff8080;fill-opacity:1;stroke-width:0.266675"
       id="rect45-1-9-2-3"
       width="0.52916664"
       height="0.52916664"
       x="2.3812501"
       y="2.3812501" />
    <rect
       style="fill:#ff8080;fill-opacity:1;stroke-width:0.266675"
       id="rect45-1-9-2-1-8"
       width="0.52916664"
       height="0.52916664"
       x="3.4395833"
       y="2.3812501" />
    <rect
       style="fill:#ff8080;fill-opacity:1;stroke-width:0.264583"
       id="rect45-1-4-9"
       width="0.52916664"
       height="0.5208984"
       x="0.26458332"
       y="3.4395833" />
    <rect
       style="fill:#ff8080;fill-opacity:1;stroke-width:0.266675"
       id="rect45-1-9-8-3"
       width="0.52916664"
       height="0.52916664"
       x="1.3229166"
       y="3.4395833" />
    <rect
       style="fill:#ff8080;fill-opacity:1;stroke-width:0.266675"
       id="rect45-1-9-2-6-4"
       width="0.52916664"
       height="0.52916664"
       x="2.3812501"
       y="3.4395833" />
    <rect
       style="fill:#ff8080;fill-opacity:1;stroke-width:0.266675"
       id="rect45-1-9-2-1-5-4"
       width="0.52916664"
       height="0.52916664"
       x="3.4395833"
       y="3.4395833" />
    <path
       style="fill:#ffaaaa;fill-opacity:1;stroke-width:0.03125"
       d="m 1,9.984375 v -0.96875 h 1 1 v 0.96875 0.96875 H 2 1 Z"
       id="path47"
       transform="scale(0.26458333)" />
    <path
       style="fill:#ffaaaa;fill-opacity:1;stroke-width:0.03125"
       d="M 5,14 V 13.015625 H 6 7 V 14 14.984375 H 6 5 Z"
       id="path48"
       transform="scale(0.26458333)" />
    <path
       style="fill:#ffaaaa;fill-opacity:1;stroke-width:0.03125"
       d="M 9,10 V 9.015625 h 1 1 V 10 10.984375 H 10 9 Z"
       id="path49"
       transform="scale(0.26458333)" />
    <path
       style="fill:#ffaaaa;fill-opacity:1;stroke-width:0.03125"
       d="m 13,14 v -0.984375 h 1 1 V 14 14.984375 h -1 -1 z"
       id="path50"
       transform="scale(0.26458333)" />
    <path
       style="fill:#ffaaaa;fill-opacity:1;stroke-width:0.03125"
       d="M 5,6 V 5.015625 H 6 7 V 6 6.984375 H 6 5 Z"
       id="path51"
       transform="scale(0.26458333)" />
    <path
       style="fill:#ffaaaa;fill-opacity:1;stroke-width:0.03125"
       d="M 13,6 V 5.015625 h 1 1 V 6 6.984375 h -1 -1 z"
       id="path52"
       transform="scale(0.26458333)" />
    <path
       style="fill:#ffaaaa;fill-opacity:1;stroke-width:0.03125"
       d="M 9,2 V 1.015625 h 1 1 V 2 2.984375 H 10 9 Z"
       id="path53"
       transform="scale(0.26458333)" />
    <path
       style="fill:#ffaaaa;fill-opacity:1;stroke-width:0.03125"
       d="M 1,2 V 1.015625 H 2 3 V 2 2.984375 H 2 1 Z"
       id="path54"
       transform="scale(0.26458333)" />
  </g>
</svg>
