<?xml version="1.0" encoding="UTF-8" standalone="no"?>
<!-- Created with Inkscape (http://www.inkscape.org/) -->

<svg
   width="16"
   height="15.999999"
   viewBox="0 0 4.2333332 4.233333"
   version="1.1"
   id="svg1"
   xmlns="http://www.w3.org/2000/svg"
   xmlns:svg="http://www.w3.org/2000/svg">
  <defs
     id="defs1" />
  <g
     id="layer1">
    <path
       d="M 0,0 V 4.2333332 M 0.26458333,0 V 4.2333332 M 0.52916665,0 V 4.2333332 M 0.79374997,0 V 4.2333332 M 1.0583333,0 V 4.2333332 M 1.3229166,0 V 4.2333332 M 1.5874999,0 V 4.2333332 M 1.8520833,0 V 4.2333332 M 2.1166666,0 V 4.2333332 M 2.3812499,0 V 4.2333332 M 2.6458332,0 V 4.2333332 M 2.9104166,0 V 4.2333332 M 3.1749999,0 V 4.2333332 M 3.4395832,0 V 4.2333332 M 3.7041665,0 V 4.2333332 M 3.9687499,0 V 4.2333332 M 4.2333332,0 V 4.2333332 M 0,0 H 4.2333332 M 0,0.26458333 H 4.2333332 M 0,0.52916665 H 4.2333332 M 0,0.79374997 H 4.2333332 M 0,1.0583333 H 4.2333332 M 0,1.3229166 H 4.2333332 M 0,1.5874999 H 4.2333332 M 0,1.8520833 H 4.2333332 M 0,2.1166666 H 4.2333332 M 0,2.3812499 H 4.2333332 M 0,2.6458332 H 4.2333332 M 0,2.9104166 H 4.2333332 M 0,3.1749999 H 4.2333332 M 0,3.4395832 H 4.2333332 M 0,3.7041665 H 4.2333332 M 0,3.9687499 H 4.2333332 M 0,4.2333332 h 4.2333332"
       style="display:none;fill:#ffaaaa;stroke:#000000;stroke-width:0.0264583px"
       id="path1" />
    <path
       style="display:inline;fill:#ffaaaa;fill-opacity:1;stroke-width:0.00826823"
       d="m -0.37831387,3.5615395 0.002109,-0.7751463 0.18396809,-0.00223 0.1839681,-0.00223 V 2.5175176 2.2530924 H 0.25218099 0.5126302 V 2.3895182 2.525944 H 0.64905598 0.78548174 V 2.129069 1.732194 H 1.3129585 1.8404353 l 0.00183,-0.027216 c 0.0086,-0.1276642 0.094129,-0.2922636 0.1920866,-0.3696588 0.014389,-0.011369 0.031089,-0.025322 0.03711,-0.031006 0.00602,-0.00568 0.014624,-0.010335 0.019117,-0.010335 0.00449,0 0.00941,-0.00279 0.010926,-0.0062 0.00802,-0.018041 0.135062,-0.066131 0.1970594,-0.074593 0.1716623,-0.023431 0.3299022,0.029735 0.4506186,0.1513992 0.07221,0.072777 0.1281967,0.1721174 0.1489318,0.2642587 0.00307,0.013643 0.00732,0.032246 0.00945,0.041341 0.00367,0.015717 0.00374,0.078563 2.645e-4,0.2500908 l -0.00153,0.076458 0.1260903,2.3e-5 0.1260906,2.31e-5 6.086e-4,-0.4072103 c 3.439e-4,-0.2239656 0.00222,-0.4158703 0.00418,-0.4264549 0.013806,-0.07452 0.081589,-0.16628573 0.1463717,-0.19816448 0.041954,-0.0206452 0.074735,-0.0315692 0.1012423,-0.0337383 0.011091,-9.0752e-4 0.012351,-0.0327643 0.010335,-0.26148704 -0.00127,-0.14324939 -3.3e-5,-0.26045155 0.00273,-0.26044919 0.00276,2.35e-6 0.026061,-0.0269708 0.051774,-0.0599404 0.025712,-0.0329696 0.050425,-0.0644385 0.054919,-0.069931 0.00449,-0.005492 0.00817,-0.0138639 0.00817,-0.0186034 0,-0.00474 0.00284,-0.008617 0.00631,-0.008617 0.00347,0 0.00998,-0.007293 0.01447,-0.0162068 0.1045689,-0.20764254 0.1066128,-0.21235001 0.1239909,-0.28558347 0.019674,-0.0829064 0.019272,-0.0808528 0.019963,-0.101866 l 6.35e-4,-0.0191837 0.1219563,0.004283 c 0.067076,0.002356 0.1377696,0.004477 0.1570963,0.004714 l 0.03514,4.3127e-4 V 0.12402487 0.40927878 H 4.1671939 4.316022 V 0.94257811 1.4758789 H 4.1965618 4.0771016 L 4.0768593,2.129069 c -1.897e-4,0.510763 0.00196,0.6531898 0.00991,0.6531895 0.00796,-5e-7 0.00969,0.1674117 0.008,0.7772136 l -0.00214,0.777214 H 1.8560914 -0.38042331 Z"
       id="path43" />
    <g
       id="g42"
       style="display:none;fill:#ffaaaa">
      <rect
         style="fill:#ffaaaa;fill-opacity:1;stroke-width:0.264583"
         id="rect35"
         width="4.4772224"
         height="1.5541437"
         x="-0.10468325"
         y="2.9069734" />
      <rect
         style="fill:#ffaaaa;fill-opacity:1;stroke-width:0.30326"
         id="rect37"
         width="0.38084263"
         height="0.32210231"
         x="0.72365189"
         y="2.6492918" />
      <rect
         style="fill:#ffaaaa;fill-opacity:1;stroke-width:0.264583"
         id="rect38"
         width="2.1258752"
         height="1.1917787"
         x="1.0548851"
         y="1.8520883" />
      <rect
         style="fill:#ffaaaa;fill-opacity:1;stroke-width:0.271924"
         id="rect39"
         width="1.2418193"
         height="0.84551859"
         x="3.1146145"
         y="2.1178229" />
      <rect
         style="fill:#ffaaaa;fill-opacity:1;stroke-width:0.264583"
         id="rect40"
         width="0.92604417"
         height="0.89383399"
         x="3.4303899"
         y="1.3206195" />
      <rect
         style="fill:#ffaaaa;fill-opacity:1;stroke-width:0.264583"
         id="rect41"
         width="0.89383399"
         height="1.0709902"
         x="3.6961243"
         y="0.53146881" />
      <ellipse
         style="fill:#ffaaaa;fill-opacity:1;stroke-width:0.288584"
         id="ellipse41"
         cx="2.6492918"
         cy="1.8842986"
         rx="0.5395214"
         ry="0.55562651" />
      <ellipse
         style="fill:#ffaaaa;fill-opacity:1;stroke-width:0.264583"
         id="ellipse42"
         cx="3.7404132"
         cy="1.3286721"
         rx="0.31002349"
         ry="0.28183952" />
      <path
         style="fill:#ffaaaa;fill-opacity:1;stroke-width:0.280419"
         d="m 3.6880715,0.5396317 c 0.2737871,-0.28945085 0.289892,-0.58794705 0.289892,-0.58794705 l 0.3140499,0.0090453 v 0.65126442 l -0.5314688,-0.009046 z"
         id="path42" />
    </g>
    <g
       id="g35"
       style="display:inline;fill:#ff8080">
      <rect
         style="fill:#ff8080;fill-opacity:1;stroke-width:0.264583"
         id="rect27"
         width="4.4772224"
         height="1.5541437"
         x="-0.10468325"
         y="2.9069734" />
      <rect
         style="fill:#ff8080;fill-opacity:1;stroke-width:0.264583"
         id="rect28"
         width="0.53146881"
         height="0.5395214"
         x="0.25768185"
         y="2.3755045" />
      <rect
         style="fill:#ff8080;fill-opacity:1;stroke-width:0.30326"
         id="rect29"
         width="0.38084263"
         height="0.32210231"
         x="0.72365189"
         y="2.6492918" />
      <rect
         style="fill:#ff8080;fill-opacity:1;stroke-width:0.264583"
         id="rect30"
         width="2.1258752"
         height="1.1917787"
         x="1.0548851"
         y="1.8520883" />
      <rect
         style="fill:#ff8080;fill-opacity:1;stroke-width:0.271924"
         id="rect31"
         width="1.2418193"
         height="0.84551859"
         x="3.1146145"
         y="2.1178229" />
      <rect
         style="fill:#ff8080;fill-opacity:1;stroke-width:0.264583"
         id="rect32"
         width="0.92604417"
         height="0.89383399"
         x="3.4303899"
         y="1.3206195" />
      <rect
         style="fill:#ff8080;fill-opacity:1;stroke-width:0.264583"
         id="rect33"
         width="0.89383399"
         height="1.0709902"
         x="3.6961243"
         y="0.53146881" />
      <ellipse
         style="fill:#ff8080;fill-opacity:1;stroke-width:0.288584"
         id="path33"
         cx="2.6492918"
         cy="1.8842986"
         rx="0.5395214"
         ry="0.55562651" />
      <ellipse
         style="fill:#ff8080;fill-opacity:1;stroke-width:0.264583"
         id="path34"
         cx="3.7404132"
         cy="1.3286721"
         rx="0.31002349"
         ry="0.28183952" />
      <path
         style="fill:#ff8080;fill-opacity:1;stroke-width:0.280419"
         d="m 3.6880715,0.5396317 c 0.2737871,-0.28945085 0.289892,-0.58794705 0.289892,-0.58794705 l 0.3140499,0.0090453 v 0.65126442 l -0.5314688,-0.009046 z"
         id="path35" />
    </g>
    <path
       style="display:none;fill:#ffaaaa;fill-opacity:1;stroke-width:0.03125"
       d="m -1.4267499,16.085937 c 0.011097,-0.167578 0.020249,-1.482421 0.020338,-2.921875 l 1.617e-4,-2.617187 h 0.54251341 c 0.29838237,0 0.60775737,-0.0089 0.6875,-0.01987 L -0.03125,10.50713 V 9.5113775 8.515625 H 0.953125 1.9375 V 8.75 8.984375 H 2.453125 2.96875 V 7.765625 6.546875 H 4.9644625 6.960175 L 6.9968272,6.3196694 C 7.0404181,6.0494514 7.1872956,5.697928 7.3672437,5.4331479 7.7962162,4.801947 8.6314397,4.4642873 9.375,4.6214625 c 0.2325725,0.049162 0.6000078,0.2111055 0.75,0.3305558 l 0.07813,0.062217 -0.2215638,6.949e-4 C 9.3369822,5.0169516 8.6947109,5.3704508 8.3248865,5.9267461 8.1644481,6.1680801 8.0149037,6.5573338 7.982265,6.8185672 L 7.9615484,6.984375 H 5.9651494 3.96875 V 8.4837144 9.9830537 L 3.3515625,9.9915269 2.734375,10 2.725765,10.492187 2.717155,10.984375 H 1.1554565 -0.40625 V 13.6875 16.390625 H -0.92658822 -1.4469264 Z"
       id="path44"
       transform="scale(0.26458333)" />
    <path
       style="display:inline;fill:#ff8080;fill-opacity:1;stroke-width:0.03125"
       d="m -0.39554176,16.507812 c 0.0111416,-0.193359 0.0203215,-1.508071 0.0203997,-2.921583 L -0.375,11.016208 1.1796875,11.008104 2.734375,11 2.742985,10.507812 2.751595,10.015625 H 3.3757934 4 v -1.5 -1.5 H 6 8 V 6.9119491 C 8,6.6058166 8.2248219,6.0701575 8.4808547,5.7662684 8.8899165,5.2807472 9.4198731,5.0406869 10.0625,5.0498131 c 0.55265,0.00785 0.971432,0.1854241 1.359375,0.5764138 0.281754,0.2839665 0.450986,0.5858159 0.550266,0.9814806 0.06063,0.2416172 0.06432,0.3123681 0.04366,0.8359375 l -0.02257,0.57198 h 0.486433 0.486432 l 0.0091,-1.6022856 0.0091,-1.602286 0.102875,-0.2089025 C 13.236337,4.2994081 13.488506,4.0978822 13.823925,4.0134225 L 13.96875,3.9769553 V 3.0087622 2.0405691 L 14.161362,1.8015346 C 14.2673,1.6700656 14.399019,1.4921875 14.454073,1.40625 c 0.267946,-0.41825406 0.52468,-1.05824469 0.566186,-1.41139565 l 0.02008,-0.17082815 0.456394,0.0160441 c 0.251017,0.008824 0.51616,0.0167778 0.589206,0.0176744 l 0.132813,0.00163 V 0.9375 2.015625 h 0.5625 0.5625 V 4.03125 6.046875 h -0.451503 -0.451503 l -9.16e-4,2.46875 c -7.17e-4,1.930443 0.0074,2.468749 0.03744,2.468748 0.0301,-2e-6 0.03661,0.632737 0.03023,2.9375 l -0.0081,2.937502 H 8.041784 -0.41579928 Z"
       id="path45"
       transform="scale(0.26458333)" />
  </g>
</svg>
