<?xml version="1.0" encoding="UTF-8" standalone="no"?>
<svg
   width="16"
   height="16"
   version="1.1"
   id="svg2"
   sodipodi:docname="vertex_paint_tool.svg"
   inkscape:export-filename="vertex_paint_tool.svg"
   inkscape:export-xdpi="96"
   inkscape:export-ydpi="96"
   xmlns:inkscape="http://www.inkscape.org/namespaces/inkscape"
   xmlns:sodipodi="http://sodipodi.sourceforge.net/DTD/sodipodi-0.dtd"
   xmlns="http://www.w3.org/2000/svg"
   xmlns:svg="http://www.w3.org/2000/svg">
  <sodipodi:namedview
     id="namedview1"
     pagecolor="#000000"
     bordercolor="#000000"
     borderopacity="0.25"
     inkscape:showpageshadow="2"
     inkscape:pageopacity="0.0"
     inkscape:pagecheckerboard="0"
     inkscape:deskcolor="#d1d1d1"
     inkscape:export-bgcolor="#00000000">
    <inkscape:page
       x="0"
       y="0"
       width="16"
       height="16"
       id="page2"
       margin="0"
       bleed="0" />
  </sodipodi:namedview>
  <defs
     id="defs2">
    <clipPath
       clipPathUnits="userSpaceOnUse"
       id="clipPath3">
      <rect
         style="display:none;fill:#000000;stroke-width:3;stroke-linecap:round;stroke-linejoin:round;stroke-miterlimit:0;stroke-dashoffset:7.1298"
         id="rect3"
         width="32"
         height="64"
         x="0"
         y="0"
         d="M 0,0 H 32 V 64 H 0 Z" />
      <path
         id="lpe_path-effect3"
         style="fill:#000000;stroke-width:3;stroke-linecap:round;stroke-linejoin:round;stroke-miterlimit:0;stroke-dashoffset:7.1298"
         class="powerclip"
         d="M -5,-5 H 69 V 69 H -5 Z M 0,0 V 64 H 32 V 0 Z" />
    </clipPath>
    <clipPath
       clipPathUnits="userSpaceOnUse"
       id="clipPath4">
      <rect
         style="display:none;fill:#000000;stroke-width:3;stroke-linecap:round;stroke-linejoin:round;stroke-miterlimit:0;stroke-dashoffset:7.1298"
         id="rect4"
         width="32"
         height="64"
         x="0"
         y="0"
         d="M 0,0 H 32 V 64 H 0 Z" />
      <path
         id="lpe_path-effect4"
         style="display:inline;fill:#000000;stroke-width:3;stroke-linecap:round;stroke-linejoin:round;stroke-miterlimit:0;stroke-dashoffset:7.1298"
         class="powerclip"
         d="M -5,-5 H 69 V 69 H -5 Z M 0,0 V 64 H 32 V 0 Z" />
    </clipPath>
    <clipPath
       clipPathUnits="userSpaceOnUse"
       id="clipPath6">
      <rect
         style="display:block;fill:#000000;stroke-width:3;stroke-linecap:round;stroke-linejoin:round;stroke-miterlimit:0;stroke-dashoffset:7.1298"
         id="rect7"
         width="27.955828"
         height="70.517792"
         x="-23.401226"
         y="-5.8110428"
         d="M -23.401226,-5.8110428 H 4.5546017 V 64.706749 H -23.401226 Z" />
    </clipPath>
    <clipPath
       clipPathUnits="userSpaceOnUse"
       id="clipPath9">
      <path
         style="display:none;fill:#000000;stroke-width:3;stroke-linecap:round;stroke-linejoin:round;stroke-miterlimit:0;stroke-dashoffset:7.1298"
         id="path9"
         width="27.798773"
         height="69.261353"
         x="24.814724"
         y="-1.7276074"
         clip-path="url(#clipPath6)"
         d="M 24.814724,-1.7276074 H 52.613497 V 67.533745 H 24.814724 Z" />
      <path
         id="lpe_path-effect10"
         style="fill:#000000;stroke-width:3;stroke-linecap:round;stroke-linejoin:round;stroke-miterlimit:0;stroke-dashoffset:7.1298"
         class="powerclip"
         d="M 0.81104326,-5 H 30.442944 V 68.999812 H 0.81104326 Z M 24.814724,-1.7276074 V 67.533745 H 52.613497 V -1.7276074 Z" />
    </clipPath>
    <mask
       maskUnits="userSpaceOnUse"
       id="mask17">
      <rect
         style="fill:#ffffff;stroke-width:2.30361;stroke-linecap:round;stroke-linejoin:round;stroke-miterlimit:0;stroke-dashoffset:7.1298"
         id="rect17"
         width="19.631901"
         height="76.328835"
         x="5.8110433"
         y="-7.0674849"
         d="M 5.8110433,-7.0674849 H 25.442944 V 69.26135 H 5.8110433 Z" />
    </mask>
  </defs>
  <g
     fill="#ffffff"
     id="g2"
     transform="matrix(0.21875,0,0,0.21875,1,1)">
    <g
       id="g1"
       clip-path="none">
      <path
         fill-opacity="0.2"
         d="M 0,0 H 64 V 64 H 0 Z"
         id="path1"
         style="display:inline"
         clip-path="url(#clipPath4)" />
      <path
         fill-opacity="0.4"
         d="M 0,0 V 16 H 16 V 0 Z M 16,16 V 32 H 32 V 16 Z m 16,0 H 48 V 0 H 32 Z m 16,0 V 32 H 64 V 16 Z m 0,16 H 32 v 16 h 16 z m 0,16 V 64 H 64 V 48 Z M 32,48 H 16 V 64 H 32 Z M 16,48 V 32 H 0 v 16 z"
         id="path2"
         style="display:inline;fill:#e1e1e1;fill-opacity:1"
         clip-path="url(#clipPath3)" />
    </g>
  </g>
  <path
     fill="#e0e0e0"
     d="m 45.933522,35.506701 a 7.0553987,7.3064692 0 0 0 0,-10.332908 L 30.966762,9.6744314 28.472302,12.257658 43.439062,27.75702 a 3.5276993,3.6532346 0 0 1 0,5.166454 l -14.96676,15.499362 2.494459,2.583227 z M 23.682938,12.051001 C 23.590643,10.596643 22.909654,9.0802894 21.64247,7.7680101 17.581488,3.5625163 29.9141,0.12165786 15.822894,2.46385e-4 11.372777,-0.04108538 7.5313073,5.1253686 7.5662293,9.7286794 a 8.2195395,8.5120367 0 0 0 8.1219637,8.4109856 c 5.535208,0.04908 8.191808,-2.882881 7.992251,-6.086082 z M 21.759709,22.360659 9.6840275,22.254743 9.9708915,57.694034 A 6.039315,6.2542277 0 0 0 22.049066,57.80253 Z M 3.5252053,48.425419 -11.441556,32.926058 a 3.5276993,3.6532346 0 0 1 1e-6,-5.166455 L 3.5277003,12.257659 1.0332383,9.6744314 -13.933521,25.173793 a 7.0553987,7.3064692 0 0 0 0,10.332908 L 1.0332383,51.006063 Z"
     id="path1-1"
     style="display:none;stroke-width:3.58992"
     clip-path="url(#clipPath9)"
     mask="url(#mask17)"
     transform="matrix(-0.19438613,-0.19514346,0.19438613,-0.19514346,5.1971545,17.089532)" />
</svg>
